<svg id="Ebene_1" data-name="Ebene 1" xmlns="http://www.w3.org/2000/svg" viewBox="0 0 144.81 34.02"><defs><style>.cls-1,.cls-2{fill:#ff8c00;}.cls-1,.cls-3{fill-rule:evenodd;}</style></defs><title>03-1_Logo-ISRI-RGB</title><path class="cls-1" d="M31.83,2.48A22.08,22.08,0,0,0,21.69,0c-6.46.11-11,4.48-10.94,11,.11,6.25,3.6,7.56,8.89,9,1.81.49,5.12,1.24,5.16,3.6s-2,3.29-4,3.32c-2.87.05-5.37-1.4-7.5-3.21L9.81,30.53A20,20,0,0,0,21.21,34a14.15,14.15,0,0,0,9.11-3.2c2.53-2.22,3.35-5.81,3.18-8.75-.28-4.93-4.23-7.47-8.11-8.68l-2.15-.6c-1.46-.44-3.74-1.13-3.78-3S21.47,7,23,7a8.85,8.85,0,0,1,5.6,2.05Z" transform="translate(0 0)"/><rect class="cls-2" y="0.56" width="8.56" height="32.94"/><rect class="cls-2" x="62.12" y="0.56" width="8.56" height="32.94"/><path class="cls-1" d="M51.93,20c4.67-.83,7.21-4.76,7.21-9.3C59.14,3.67,54.2.56,47.7.56H34.9V33.51h8.56V20.83h.09l6.81,12.68H61Zm-7.64-4.67h-.83V7.11h.83c2.8,0,5.94.53,5.94,4.11S47.09,15.33,44.29,15.33Z" transform="translate(0 0)"/><path class="cls-1" d="M75.64,6.62A2.65,2.65,0,1,0,73,4,2.64,2.64,0,0,0,75.64,6.62Zm0-4.87A2.22,2.22,0,1,1,73.42,4,2.22,2.22,0,0,1,75.64,1.75Zm.43,2.34a.68.68,0,0,0,.71-.73c0-.57-.43-.71-.92-.71H74.73V5.33h.39V4.09h.5l.69,1.24h.44Zm-.28-1c.32,0,.61,0,.61.36s-.5.3-.87.3h-.41V3Z" transform="translate(0 0)"/><rect x="74.43" y="26.96" width="1.69" height="6.51"/><path class="cls-3" d="M81.67,27.33a4.44,4.44,0,0,0-2-.54A2.11,2.11,0,0,0,77.39,29c0,1.26.7,1.54,1.76,1.84.36.1,1,.26,1,.74s-.43.66-.82.66a2.37,2.37,0,0,1-1.51-.68l-.72,1.37a4.08,4.08,0,0,0,2.29.74A2.79,2.79,0,0,0,81.26,33a2.19,2.19,0,0,0,.68-1.75c0-1.05-.7-1.51-1.61-1.78l-.43-.13c-.29-.09-.75-.24-.75-.62s.42-.54.73-.54a1.77,1.77,0,0,1,1.12.43Z" transform="translate(0 0)"/><path class="cls-3" d="M86.3,30.81A1.75,1.75,0,0,0,87.73,29c0-1.4-1-2-2.26-2H82.94v6.52h1.69V31h0l1.6,2.51h2.1Zm-1.67-2.55h.16c.56,0,1.18.1,1.18.81s-.62.82-1.18.82h-.16Z" transform="translate(0 0)"/><rect x="89" y="26.96" width="1.69" height="6.51"/><polygon class="cls-3" points="92 33.48 93.69 33.48 93.69 29.49 93.71 29.49 96.81 33.48 98.5 33.48 98.5 26.96 96.81 26.96 96.81 30.95 96.79 30.95 93.69 26.96 92 26.96 92 33.48"/><path class="cls-3" d="M102.68,29.84v1.33h1.38a1.23,1.23,0,0,1-1.36,1.13,1.86,1.86,0,0,1-1.73-2,1.86,1.86,0,0,1,1.7-2.05,1.46,1.46,0,0,1,1.4,1l1.61-.67a3,3,0,0,0-2.93-1.82,3.34,3.34,0,0,0-3.54,3.51,3.29,3.29,0,0,0,3.47,3.43,3.15,3.15,0,0,0,2.69-1.28,4.11,4.11,0,0,0,.66-2.57Z" transform="translate(0 0)"/><polygon class="cls-3" points="108.53 29.47 108.53 26.96 106.84 26.96 106.84 33.48 108.53 33.48 108.53 30.81 110.97 30.81 110.97 33.48 112.66 33.48 112.66 26.96 110.97 26.96 110.97 29.47 108.53 29.47"/><path class="cls-3" d="M118,32.35l.43,1.13h1.8L117.73,27h-1.85l-2.5,6.52h1.79l.45-1.13Zm-.45-1.3h-1.41l.7-2.07h0Z" transform="translate(0 0)"/><path class="cls-3" d="M124.6,27v3.43c0,.85-.06,1.77-1.15,1.77s-1.15-.92-1.15-1.77V27h-1.69v3.67a2.92,2.92,0,0,0,.68,2.29,3.56,3.56,0,0,0,4.32,0,3,3,0,0,0,.68-2.29V27Z" transform="translate(0 0)"/><path class="cls-3" d="M131.8,27.33a4.4,4.4,0,0,0-2-.54A2.11,2.11,0,0,0,127.52,29c0,1.26.7,1.54,1.76,1.84.36.1,1,.26,1,.74s-.42.66-.82.66a2.32,2.32,0,0,1-1.5-.68l-.73,1.37a4.08,4.08,0,0,0,2.29.74A2.82,2.82,0,0,0,131.4,33a2.18,2.18,0,0,0,.67-1.75c0-1.05-.7-1.51-1.61-1.78l-.43-.13c-.29-.09-.75-.24-.75-.62s.42-.54.73-.54a1.77,1.77,0,0,1,1.12.43Z" transform="translate(0 0)"/><polygon class="cls-3" points="136.77 28.4 136.77 26.96 133.07 26.96 133.07 33.48 136.77 33.48 136.77 32.04 134.76 32.04 134.76 30.92 136.67 30.92 136.67 29.49 134.76 29.49 134.76 28.4 136.77 28.4"/><polygon class="cls-3" points="138.01 33.48 139.71 33.48 139.71 29.49 139.72 29.49 142.82 33.48 144.51 33.48 144.51 26.96 142.82 26.96 142.82 30.95 142.8 30.95 139.71 26.96 138.01 26.96 138.01 33.48"/><path class="cls-2" d="M144.81.06H124.17A12.19,12.19,0,0,0,117,2.63a12.25,12.25,0,0,0-15,0A12.24,12.24,0,0,0,86,21.12H74.15v3.44H94.88A12.17,12.17,0,0,0,102,22a12.23,12.23,0,0,0,15,0,12.25,12.25,0,0,0,16-18.49h11.75ZM99.61,19.49a8.82,8.82,0,1,1,0-14.36,12.23,12.23,0,0,0,0,14.36Zm2.4-2.57a8.88,8.88,0,0,1,0-9.22,8.82,8.82,0,0,1,0,9.22Zm7.52,4.21a8.75,8.75,0,0,1-5.11-1.64,12.27,12.27,0,0,0,0-14.36,8.78,8.78,0,0,1,10.22,0,12.23,12.23,0,0,0,0,14.36A8.77,8.77,0,0,1,109.53,21.13ZM117,16.92a8.88,8.88,0,0,1,0-9.22,8.82,8.82,0,0,1,0,9.22Zm16.33-4.61a8.8,8.8,0,0,1-13.92,7.18,12.27,12.27,0,0,0,0-14.36,8.8,8.8,0,0,1,13.92,7.18Z" transform="translate(0 0)"/></svg>